<?xml version="1.0" encoding="UTF-8"?>
<svg xmlns="http://www.w3.org/2000/svg" width="900" height="600" viewBox="0 0 900 600">
  <defs>
    <linearGradient id="base" x1="0.18" y1="0.05" x2="0.82" y2="0.95">
      <stop offset="0" stop-color="#c36cff"/>
      <stop offset="0.18" stop-color="#8d24f5"/>
      <stop offset="0.52" stop-color="#5b0fc8"/>
      <stop offset="0.78" stop-color="#4a0cae"/>
      <stop offset="1" stop-color="#a33cff"/>
    </linearGradient>
    <linearGradient id="shine" x1="0" y1="0" x2="1" y2="1">
      <stop offset="0" stop-color="#ffffff" stop-opacity="0.34"/>
      <stop offset="0.35" stop-color="#ffffff" stop-opacity="0.08"/>
      <stop offset="0.65" stop-color="#24005e" stop-opacity="0.22"/>
      <stop offset="1" stop-color="#ffffff" stop-opacity="0.18"/>
    </linearGradient>
    <filter id="softGlow" x="-15%" y="-15%" width="130%" height="130%">
      <feGaussianBlur stdDeviation="4"/>
    </filter>
    <clipPath id="logoClip">
      <path d="M 249 100
C 261 100 271 108 278 122
L 420 398
L 387 391
C 370 388 359 379 351 365
L 249 170
L 160 326
L 264 255
L 323 362
C 298 349 274 331 249 331
C 228 331 210 341 187 352
L 109 389
L 79 398
L 220 121
C 227 107 237 100 249 100
Z" transform="translate(31.28 -118.0) scale(1.68)"/>
    </clipPath>
  </defs>
  <path d="M 249 100
C 261 100 271 108 278 122
L 420 398
L 387 391
C 370 388 359 379 351 365
L 249 170
L 160 326
L 264 255
L 323 362
C 298 349 274 331 249 331
C 228 331 210 341 187 352
L 109 389
L 79 398
L 220 121
C 227 107 237 100 249 100
Z" transform="translate(31.28 -118.0) scale(1.68)" fill="url(#base)"/>
  <g clip-path="url(#logoClip)">
    <ellipse cx="430" cy="122" rx="210" ry="85" fill="#ffffff" opacity="0.14" filter="url(#softGlow)"/>
    <ellipse cx="590" cy="415" rx="250" ry="120" fill="#24005e" opacity="0.22" filter="url(#softGlow)"/>
    <path d="M 190 500 C 340 390 475 250 610 90" fill="none" stroke="url(#shine)" stroke-width="24" opacity="0.35" filter="url(#softGlow)"/>
  </g>
  <path d="M 249 100
C 261 100 271 108 278 122
L 420 398
L 387 391
C 370 388 359 379 351 365
L 249 170
L 160 326
L 264 255
L 323 362
C 298 349 274 331 249 331
C 228 331 210 341 187 352
L 109 389
L 79 398
L 220 121
C 227 107 237 100 249 100
Z" transform="translate(31.28 -118.0) scale(1.68)" fill="none" stroke="#d999ff" stroke-opacity="0.22" stroke-width="4"/>
</svg>